<svg width="126" height="32" viewBox="0 0 126 32" fill="none" xmlns="http://www.w3.org/2000/svg">
<g id="Link &#226;&#134;&#146; SVG" clip-path="url(#clip0_64_316)">
<g id="Group">
<path id="Vector" d="M16.0083 -0.0650024C3.2004 -0.0650024 0 3.1354 0 15.9433C0 28.7512 3.2004 31.9516 16.0083 31.9516C28.8162 31.9516 32.0166 28.7512 32.0166 15.9433C32.0166 3.1354 28.8162 -0.0650024 16.0083 -0.0650024ZM13.3812 24.7003C12.1696 24.6966 10.9863 24.3339 9.98077 23.658C8.97521 22.9822 8.19246 22.0236 7.7314 20.9031C7.27034 19.7827 7.15164 18.5508 7.3903 17.363C7.62895 16.1751 8.21425 15.0847 9.07228 14.2293C9.93031 13.3739 11.0226 12.7919 12.2111 12.5569C13.3997 12.3219 14.6313 12.4444 15.7503 12.9089C16.8692 13.3734 17.8255 14.1591 18.4982 15.1668C19.171 16.1744 19.53 17.3588 19.53 18.5704C19.5267 20.1984 18.8772 21.7585 17.7242 22.9079C16.5713 24.0573 15.0092 24.702 13.3812 24.7003ZM24.5133 24.4483H21.5082V10.4371H7.5033V7.4383H24.5133V24.4483Z" fill="white"/>
<path id="Vector_2" d="M13.3811 21.6952C15.1069 21.6952 16.5059 20.2962 16.5059 18.5704C16.5059 16.8446 15.1069 15.4456 13.3811 15.4456C11.6554 15.4456 10.2563 16.8446 10.2563 18.5704C10.2563 20.2962 11.6554 21.6952 13.3811 21.6952Z" fill="white"/>
</g>
<g id="Group_2">
<path id="Vector_3" d="M44.6672 18.0853C46.1603 13.9336 46.7588 12.2515 47.3069 10.5253C48.1007 12.9949 48.9197 15.3007 49.8773 18.0853H44.6672ZM45.7004 7.495L39.2681 24.4483H42.5567L43.9238 20.4856H50.6207L51.9626 24.4483H55.2764L49.0835 7.495H45.7004Z" fill="white"/>
<path id="Vector_4" d="M62.0113 22.3378C60.2347 22.3378 59.2015 20.8699 59.2015 18.3247C59.2015 16.0441 60.4048 14.6077 62.1058 14.6077C63.7123 14.6077 64.7014 16.0693 64.7014 18.4696C64.7014 20.9896 63.6682 22.3378 62.0113 22.3378ZM59.2771 14.1037V7.495H56.4673V24.442H59.1574V22.8859C59.5382 23.4713 60.0666 23.9461 60.6892 24.2624C61.3119 24.5787 62.0069 24.7254 62.7043 24.6877C65.659 24.6877 67.6246 22.3819 67.6246 18.4696C67.6246 14.5573 65.8291 12.2515 63.0193 12.2515C62.2936 12.2431 61.5763 12.4065 60.9259 12.7284C60.2755 13.0503 59.7105 13.5216 59.2771 14.1037Z" fill="white"/>
<path id="Vector_5" d="M73.5272 14.299C74.09 14.2982 74.6418 14.4554 75.1196 14.7528C75.5974 15.0502 75.9822 15.4758 76.2299 15.9811L78.3215 14.5636C77.8145 13.786 77.1127 13.1547 76.2859 12.7325C75.4592 12.3103 74.5363 12.1119 73.6091 12.157C70.6544 12.157 68.9723 13.8895 68.9723 15.7669C68.9723 17.6443 70.1504 18.6712 72.0026 19.2508L73.2626 19.6603C75.0644 20.2336 75.4739 20.5738 75.4739 21.3676C75.4739 22.1614 74.7998 22.6276 73.5839 22.6276C72.943 22.6273 72.3156 22.4439 71.7754 22.099C71.2352 21.7541 70.8048 21.2621 70.5347 20.6809L68.3486 22.1236C68.8983 22.9738 69.6578 23.668 70.5538 24.1392C71.4499 24.6104 72.4523 24.8427 73.4642 24.8137C76.4441 24.8137 78.2963 23.2009 78.2963 20.9896C78.2963 19.0996 77.093 18.0853 74.9825 17.4112L73.7225 17.0269C72.1853 16.5481 71.8325 16.2079 71.8325 15.4897C71.8325 14.7715 72.4121 14.3116 73.6091 14.3116" fill="white"/>
<path id="Vector_6" d="M83.9793 14.7526H86.3103V12.535H83.9793V8.629H81.1821L81.1317 12.535H79.2417V14.7841H81.1317V21.3361C81.0457 22.2299 81.2851 23.1246 81.8058 23.8561C82.2909 24.4357 83.0658 24.7255 84.2628 24.7255C84.9687 24.7241 85.6715 24.633 86.3544 24.4546V22.1929C85.9854 22.3313 85.5955 22.4059 85.2015 22.4134C84.3321 22.4134 83.9793 21.9787 83.9793 20.7502V14.7526Z" fill="white"/>
<path id="Vector_7" d="M90.5754 12.535H87.8853V24.505H90.7203V18.9106C90.6511 17.9526 90.8705 16.9959 91.3503 16.1638C91.6291 15.7619 92.0087 15.4403 92.451 15.2314C92.8933 15.0224 93.3827 14.9333 93.8703 14.9731C94.2202 14.9787 94.5677 15.0317 94.9035 15.1306V12.535C94.5712 12.4179 94.2225 12.3541 93.8703 12.346C93.1803 12.3069 92.4947 12.4773 91.9033 12.8348C91.3119 13.1924 90.8424 13.7203 90.5565 14.3494L90.5754 12.535Z" fill="white"/>
<path id="Vector_8" d="M103.03 19.4209C103.037 20.0884 102.854 20.7441 102.501 21.3109C102.222 21.7175 101.845 22.0465 101.404 22.2669C100.963 22.4874 100.473 22.592 99.981 22.5709C98.721 22.5709 98.154 21.9409 98.154 21.0589C98.1406 20.7346 98.2346 20.415 98.4214 20.1496C98.6083 19.8841 98.8774 19.6878 99.1872 19.591C100.413 19.1394 101.705 18.8945 103.011 18.8665L103.03 19.4209ZM105.708 16.9009C105.708 15.0109 105.456 14.0407 104.712 13.3414C103.969 12.6421 102.766 12.1885 101.128 12.1885C98.0721 12.1885 96.1443 13.6312 95.9553 16.2331L98.6517 16.4725C98.7966 15.1495 99.4455 14.3998 100.913 14.3998C101.511 14.3472 102.106 14.5303 102.57 14.9101C102.742 15.1059 102.872 15.3351 102.951 15.5834C103.03 15.8316 103.057 16.0936 103.03 16.3528V16.9828C101.14 17.1025 98.8218 17.4364 97.6437 17.9656C96.9878 18.2002 96.4227 18.6359 96.0291 19.2106C95.6354 19.7853 95.4332 20.4696 95.4513 21.166C95.4513 23.308 96.9948 24.6751 99.1809 24.6751C99.9215 24.712 100.661 24.5771 101.34 24.281C102.02 23.9848 102.622 23.5353 103.1 22.9678C103.358 24.1648 104.202 24.6121 105.708 24.6121C106.136 24.6163 106.561 24.5504 106.968 24.4168V22.615C105.878 22.8103 105.708 22.174 105.708 21.2416V16.9009Z" fill="white"/>
<path id="Vector_9" d="M110.471 18.4003C110.471 15.7354 111.731 14.5132 113.35 14.5132C114.484 14.5132 115.347 15.0424 115.681 16.6237L118.201 15.7606C117.961 14.6864 117.346 13.7331 116.466 13.0724C115.586 12.4117 114.498 12.0871 113.4 12.157C109.815 12.157 107.56 14.5384 107.56 18.457C107.56 22.3756 109.771 24.7948 113.23 24.7948C115.945 24.7948 117.533 23.3584 118.226 21.3613L115.706 20.4982C115.639 21.059 115.361 21.573 114.927 21.935C114.494 22.297 113.939 22.4794 113.375 22.4449C111.573 22.4386 110.471 21.0463 110.471 18.4003Z" fill="white"/>
<path id="Vector_10" d="M123.625 14.7526H125.937V12.535H123.625V8.629H120.828L120.778 12.535H118.888V14.7841H120.778V21.3361C120.692 22.2299 120.931 23.1246 121.452 23.8561C121.937 24.4357 122.712 24.7255 123.909 24.7255C124.615 24.7241 125.317 24.633 126 24.4546V22.1929C125.631 22.3313 125.242 22.4059 124.847 22.4134C123.978 22.4134 123.625 21.9787 123.625 20.7502V14.7526Z" fill="white"/>
</g>
</g>
<defs>
<clipPath id="clip0_64_316">
<rect width="126" height="32" fill="white"/>
</clipPath>
</defs>
</svg>
