<svg width="139" height="36" viewBox="0 0 139 36" fill="none" xmlns="http://www.w3.org/2000/svg">
<g id="SVG" clip-path="url(#clip0_64_347)">
<g id="Group">
<path id="Vector" d="M17.5632 0.808838C3.53547 0.808838 0.0302734 4.31429 0.0302734 18.343C0.0302734 32.3717 3.53547 35.8771 17.5632 35.8771C31.5909 35.8771 35.0961 32.3717 35.0961 18.343C35.0961 4.31429 31.5909 0.808838 17.5632 0.808838ZM14.6859 27.9347C13.3589 27.9306 12.0629 27.5333 10.9616 26.7931C9.86026 26.0528 9.00297 25.0028 8.498 23.7756C7.99303 22.5484 7.86303 21.199 8.12441 19.898C8.38579 18.5969 9.02684 17.4025 9.96658 16.4656C10.9063 15.5287 12.1026 14.8912 13.4044 14.6338C14.7062 14.3765 16.055 14.5106 17.2806 15.0194C18.5061 15.5282 19.5534 16.3888 20.2902 17.4925C21.027 18.5961 21.4203 19.8934 21.4203 21.2205C21.4166 23.0037 20.7053 24.7125 19.4425 25.9714C18.1798 27.2304 16.4689 27.9365 14.6859 27.9347ZM26.8782 27.6586H23.5869V12.312H8.24817V9.02732H26.8782V27.6586Z" fill="white"/>
<path id="Vector_2" d="M14.6861 24.6427C16.5762 24.6427 18.1085 23.1104 18.1085 21.2203C18.1085 19.3301 16.5762 17.7979 14.6861 17.7979C12.7959 17.7979 11.2637 19.3301 11.2637 21.2203C11.2637 23.1104 12.7959 24.6427 14.6861 24.6427Z" fill="white"/>
</g>
</g>
<defs>
<clipPath id="clip0_64_347">
<rect width="138" height="35.19" fill="white" transform="translate(0.0302734 0.810059)"/>
</clipPath>
</defs>
</svg>
