<svg width="21" height="21" viewBox="0 0 21 21" fill="none" xmlns="http://www.w3.org/2000/svg">
<g id="SVG" clip-path="url(#clip0_64_392)">
<g id="Group">
<g id="Group_2">
<g id="Group_3">
<path id="Vector" d="M11.0792 13.2677V13.967C11.0792 13.967 9.28099 13.967 9.08119 13.967V13.3676C9.08119 12.7682 9.18109 11.969 9.88039 11.2697C10.5797 10.5704 11.4788 10.0709 11.4788 9.17178C11.4788 8.27268 10.7795 7.77318 10.0802 7.77318C8.78149 7.77318 8.68159 9.17178 8.58169 9.47148H6.68359C6.68359 8.07288 7.28299 5.97498 10.0802 5.97498C12.4778 5.97498 13.4768 7.57338 13.4768 8.97198C13.4768 11.3696 11.0792 11.7692 11.0792 13.2677Z" fill="white"/>
<path id="Vector_2" d="M10.0803 16.9644C10.6321 16.9644 11.0795 16.517 11.0795 15.9652C11.0795 15.4133 10.6321 14.9659 10.0803 14.9659C9.52842 14.9659 9.08105 15.4133 9.08105 15.9652C9.08105 16.517 9.52842 16.9644 10.0803 16.9644Z" fill="white"/>
</g>
<path id="Vector_3" d="M10.0798 2.97798C14.4754 2.97798 18.0718 6.57438 18.0718 10.97C18.0718 15.3656 14.4754 18.962 10.0798 18.962C5.68424 18.962 2.08784 15.3656 2.08784 10.97C2.08784 6.57438 5.68424 2.97798 10.0798 2.97798ZM10.0798 0.97998C4.58534 0.97998 0.0898438 5.47548 0.0898438 10.97C0.0898438 16.4645 4.58534 20.96 10.0798 20.96C15.5743 20.96 20.0698 16.4645 20.0698 10.97C20.0698 5.47548 15.5743 0.97998 10.0798 0.97998Z" fill="white"/>
</g>
</g>
</g>
<defs>
<clipPath id="clip0_64_392">
<rect width="19.98" height="19.98" fill="white" transform="translate(0.0898438 0.97998)"/>
</clipPath>
</defs>
</svg>
